# xmcd
#
# Track frame offsets: 
#        150
#        17803
#        27895
#        41626
#        53280
#        68249
#        81560
#        95381
#        108032
#        122879
#        137105
#        151968
#        164611
#        178018
#        193077
#        206913
#
# Disc length: 2924 seconds
#
# Revision: 0
# Processed by: cddbd v1.5.2PL0 Copyright (c) Steve Scherf et al.
# Submitted via: ExactAudioCopy v0.99pb4
#
DISCID=dc0b6a10
DTITLE=Truck Stop - Weihnachten im Wilden Westen
DYEAR=2002
DGENRE=Country
TTITLE0=Wir wünschen euch ein frohes Fest
TTITLE1=Erwin der dicke Schneemann (Rudolph The Rednosed Reindeer)
TTITLE2=Stille Nacht
TTITLE3=Jingle Bells (Schlittenfahrt im Schnee)
TTITLE4=Ich wünsche mir zum Weihnachsfest
TTITLE5=Papi, nur eines wünsch ich mir
TTITLE6=Big Old Joe, der Weihnachtsbär
TTITLE7=Der Weihnachtsmann sah aus wie Papa
TTITLE8=Weihnachtstraum Montana
TTITLE9=Der Weihnachtsmann kommt heute in die Stadt (Santa Claus Is Co
TTITLE9=ming To Town)
TTITLE10=Söhnchen mein Söhnchen
TTITLE11=Weisse Weihnacht im Wilden Westen
TTITLE12=Ich schenk dir einen Schneemann
TTITLE13=Kommt der Weihnachtsmann nach Texas
TTITLE14=Genau zur Weihnachtszeit
TTITLE15=Weihnacht an der Waterkant
EXTD=
EXTT0=
EXTT1=
EXTT2=
EXTT3=
EXTT4=
EXTT5=
EXTT6=
EXTT7=
EXTT8=
EXTT9=
EXTT10=
EXTT11=
EXTT12=
EXTT13=
EXTT14=
EXTT15=
PLAYORDER=
